<svg xmlns="http://www.w3.org/2000/svg" xmlns:xlink="http://www.w3.org/1999/xlink" width="445.67" height="54.63" viewBox="0 0 445.67 54.63">
  <defs>
    <linearGradient id="Dégradé_sans_nom_11" data-name="Dégradé sans nom 11" x1="192.46" y1="27.91" x2="194.75" y2="45.41" gradientUnits="userSpaceOnUse">
      <stop offset="0" stop-color="#458bcc"/>
      <stop offset="0.07" stop-color="#4181bc"/>
      <stop offset="0.26" stop-color="#396a97"/>
      <stop offset="0.45" stop-color="#325879"/>
      <stop offset="0.64" stop-color="#2d4b65"/>
      <stop offset="0.82" stop-color="#2a4458"/>
      <stop offset="1" stop-color="#294154"/>
    </linearGradient>
    <linearGradient id="Dégradé_sans_nom_10" data-name="Dégradé sans nom 10" x1="189.77" y1="24.65" x2="176.07" y2="14.59" gradientUnits="userSpaceOnUse">
      <stop offset="0" stop-color="#458bcc"/>
      <stop offset="0.02" stop-color="#4488c8"/>
      <stop offset="0.24" stop-color="#3a6f9f"/>
      <stop offset="0.45" stop-color="#335b7e"/>
      <stop offset="0.65" stop-color="#2d4d67"/>
      <stop offset="0.84" stop-color="#2a4459"/>
      <stop offset="1" stop-color="#294154"/>
    </linearGradient>
    <linearGradient id="Dégradé_sans_nom_5" data-name="Dégradé sans nom 5" x1="221.33" y1="0.87" x2="188.27" y2="26.87" gradientUnits="userSpaceOnUse">
      <stop offset="0" stop-color="#2cb9ff"/>
      <stop offset="0.14" stop-color="#32aef3"/>
      <stop offset="0.44" stop-color="#3d9bdd"/>
      <stop offset="0.73" stop-color="#438fd0"/>
      <stop offset="1" stop-color="#458bcc"/>
    </linearGradient>
  </defs>
  <title>logo-smartbooster-fonce</title>
  <g id="Calque_2" data-name="Calque 2">
    <g id="logo-smartbooster-fonce">
      <g>
        <path d="M17.52,24.06a8.28,8.28,0,0,0-2.37-2,6.83,6.83,0,0,0-3.45-.81,6.57,6.57,0,0,0-3.33.81A2.58,2.58,0,0,0,7,24.42a2.7,2.7,0,0,0,.81,2,6.4,6.4,0,0,0,1.92,1.26,11.26,11.26,0,0,0,2.37.72l2.16.42a25,25,0,0,1,3.27,1,9,9,0,0,1,2.64,1.56,6.77,6.77,0,0,1,1.74,2.34,8.06,8.06,0,0,1,.63,3.36,7.88,7.88,0,0,1-1,4.11A8.6,8.6,0,0,1,18.84,44a11.11,11.11,0,0,1-3.69,1.56,18.4,18.4,0,0,1-4.17.48A16.48,16.48,0,0,1,4.77,45,11.17,11.17,0,0,1,0,41l4.08-3.36A16.8,16.8,0,0,0,7,40a7.29,7.29,0,0,0,4,1,10.54,10.54,0,0,0,2.07-.21,6.39,6.39,0,0,0,1.86-.66A4.07,4.07,0,0,0,16.23,39a2.6,2.6,0,0,0,.51-1.59,2.74,2.74,0,0,0-.75-2,5.43,5.43,0,0,0-1.8-1.23A13.1,13.1,0,0,0,12,33.51q-1.17-.27-2.07-.45-1.74-.42-3.3-1a10,10,0,0,1-2.76-1.44,6.65,6.65,0,0,1-1.92-2.28A7.34,7.34,0,0,1,1.2,25a7.75,7.75,0,0,1,.93-3.87,8.27,8.27,0,0,1,2.46-2.73,11.13,11.13,0,0,1,3.48-1.62A14.66,14.66,0,0,1,12,16.2a14.44,14.44,0,0,1,5.52,1.08,8.74,8.74,0,0,1,4.2,3.6Z" fill="#282e36"/>
        <path d="M29,16.92h5v4.44h.12a4.7,4.7,0,0,1,.93-1.5,9.56,9.56,0,0,1,1.92-1.71,11.86,11.86,0,0,1,2.76-1.38,10.34,10.34,0,0,1,3.51-.57,10.07,10.07,0,0,1,5.34,1.32,9.82,9.82,0,0,1,3.54,4,9.1,9.1,0,0,1,3.9-4,10.89,10.89,0,0,1,5.1-1.32,11.79,11.79,0,0,1,5.4,1.08,8.69,8.69,0,0,1,3.3,2.85,10.88,10.88,0,0,1,1.65,4A23.66,23.66,0,0,1,72,28.8V45.36H66.6V29.52a22.49,22.49,0,0,0-.21-3.12,7.21,7.21,0,0,0-.87-2.64,5,5,0,0,0-1.86-1.83,6.36,6.36,0,0,0-3.18-.69q-3.9,0-5.58,2.4a10.54,10.54,0,0,0-1.68,6.18V45.36h-5.4V30.48a30.15,30.15,0,0,0-.21-3.72,8.72,8.72,0,0,0-.84-2.91A4.63,4.63,0,0,0,45,21.93a6.18,6.18,0,0,0-3.15-.69,7.11,7.11,0,0,0-2.79.57,6.6,6.6,0,0,0-2.37,1.71A8.3,8.3,0,0,0,35,26.43a13,13,0,0,0-.6,4.17V45.36H29Z" fill="#282e36"/>
        <path d="M80.28,20.4a15,15,0,0,1,5.28-3.15,18.06,18.06,0,0,1,6-1.05,16.45,16.45,0,0,1,5.37.78,10.44,10.44,0,0,1,3.69,2.1,8.29,8.29,0,0,1,2.13,3,9.45,9.45,0,0,1,.69,3.57V40.2q0,1.5.06,2.76t.18,2.4h-4.8Q98.7,43.2,98.7,41h-.12a10.34,10.34,0,0,1-4.26,3.9,13.42,13.42,0,0,1-5.7,1.14,13.08,13.08,0,0,1-3.78-.54,9.23,9.23,0,0,1-3.15-1.62,7.73,7.73,0,0,1-2.13-2.67,8.28,8.28,0,0,1-.78-3.69A8.2,8.2,0,0,1,80,32.94a9.31,9.31,0,0,1,3.36-3,16.22,16.22,0,0,1,5-1.68,34.57,34.57,0,0,1,6.09-.51h4v-1.2A5.92,5.92,0,0,0,98,24.36a5.83,5.83,0,0,0-1.26-1.95A6,6,0,0,0,94.62,21a8,8,0,0,0-3-.51,11.06,11.06,0,0,0-2.73.3,12.08,12.08,0,0,0-2.13.75A9.35,9.35,0,0,0,85,22.62l-1.5,1.14ZM95.52,31.68a37.82,37.82,0,0,0-3.93.21,15.36,15.36,0,0,0-3.66.81,7.06,7.06,0,0,0-2.7,1.68,3.8,3.8,0,0,0-1,2.76,3.91,3.91,0,0,0,1.65,3.54,8.08,8.08,0,0,0,4.47,1.08A8.67,8.67,0,0,0,94.08,41a7.1,7.1,0,0,0,2.52-1.95A7.56,7.56,0,0,0,98,36.39a10.56,10.56,0,0,0,.42-2.91v-1.8Z" fill="#282e36"/>
        <path d="M111.3,16.92h5.4V21.3h.12a7.7,7.7,0,0,1,1.44-2.07,9.64,9.64,0,0,1,2-1.59,10.62,10.62,0,0,1,2.43-1.05,9.28,9.28,0,0,1,2.64-.39,7.56,7.56,0,0,1,2.4.36l-.24,5.82q-.66-.18-1.32-.3a7.37,7.37,0,0,0-1.32-.12,7.94,7.94,0,0,0-6.06,2.22q-2.1,2.22-2.1,6.9V45.36h-5.4Z" fill="#282e36"/>
        <path d="M148.74,21.6H141V34.5q0,1.2.06,2.37a6.22,6.22,0,0,0,.45,2.1,3.41,3.41,0,0,0,1.2,1.5,4.11,4.11,0,0,0,2.37.57,11.39,11.39,0,0,0,2-.18,5.72,5.72,0,0,0,1.86-.66v4.92a7,7,0,0,1-2.49.75,18.69,18.69,0,0,1-2.37.21,10.86,10.86,0,0,1-4.83-.87A5.93,5.93,0,0,1,136.71,43a7.28,7.28,0,0,1-1-3.09q-.15-1.71-.15-3.45V21.6h-6.24V16.92h6.24v-8H141v8h7.74Z" fill="#282e36"/>
        <path d="M239.1,0h5.4V21h.12a9.84,9.84,0,0,1,4.14-3.51,13.19,13.19,0,0,1,5.76-1.29,15.06,15.06,0,0,1,6,1.14,13.39,13.39,0,0,1,4.56,3.15A14,14,0,0,1,268,25.23a16.75,16.75,0,0,1,1,5.91A16.51,16.51,0,0,1,268,37a14.37,14.37,0,0,1-2.91,4.74,13.19,13.19,0,0,1-4.56,3.18,15.06,15.06,0,0,1-6,1.14,13.25,13.25,0,0,1-5.61-1.26,10.29,10.29,0,0,1-4.29-3.54h-.12v4.08h-5.4Zm14.76,41a9.76,9.76,0,0,0,3.9-.75,8.61,8.61,0,0,0,2.94-2,9,9,0,0,0,1.86-3.12,12.39,12.39,0,0,0,0-8A9,9,0,0,0,260.7,24a8.61,8.61,0,0,0-2.94-2,10.51,10.51,0,0,0-7.8,0A8.61,8.61,0,0,0,247,24a9,9,0,0,0-1.86,3.12,12.39,12.39,0,0,0,0,8A9,9,0,0,0,247,38.25a8.61,8.61,0,0,0,2.94,2A9.76,9.76,0,0,0,253.86,41Z" fill="#282e36"/>
        <path d="M274.38,31.14a14.48,14.48,0,0,1,1.17-5.82,15.16,15.16,0,0,1,3.21-4.74,15.28,15.28,0,0,1,21.48,0,15.16,15.16,0,0,1,3.21,4.74,14.48,14.48,0,0,1,1.17,5.82,14.79,14.79,0,0,1-4.38,10.59,15.23,15.23,0,0,1-4.8,3.18,15.66,15.66,0,0,1-11.88,0,15.23,15.23,0,0,1-4.8-3.18,14.79,14.79,0,0,1-4.38-10.59Zm5.76,0a11.68,11.68,0,0,0,.66,4,9,9,0,0,0,1.86,3.12,8.61,8.61,0,0,0,2.94,2,10.51,10.51,0,0,0,7.8,0,8.61,8.61,0,0,0,2.94-2,9,9,0,0,0,1.86-3.12,12.39,12.39,0,0,0,0-8A9,9,0,0,0,296.34,24a8.61,8.61,0,0,0-2.94-2,10.52,10.52,0,0,0-7.8,0,8.61,8.61,0,0,0-2.94,2,9,9,0,0,0-1.86,3.12A11.68,11.68,0,0,0,280.14,31.14Z" fill="#282e36"/>
        <path d="M310,31.14a14.48,14.48,0,0,1,1.17-5.82,15.16,15.16,0,0,1,3.21-4.74,15.28,15.28,0,0,1,21.48,0,15.16,15.16,0,0,1,3.21,4.74,14.48,14.48,0,0,1,1.17,5.82,14.79,14.79,0,0,1-4.38,10.59,15.23,15.23,0,0,1-4.8,3.18,15.66,15.66,0,0,1-11.88,0,15.23,15.23,0,0,1-4.8-3.18A14.79,14.79,0,0,1,310,31.14Zm5.76,0a11.68,11.68,0,0,0,.66,4,9,9,0,0,0,1.86,3.12,8.61,8.61,0,0,0,2.94,2,10.52,10.52,0,0,0,7.8,0,8.61,8.61,0,0,0,2.94-2,9,9,0,0,0,1.86-3.12,12.39,12.39,0,0,0,0-8A9,9,0,0,0,332,24,8.61,8.61,0,0,0,329,22a10.52,10.52,0,0,0-7.8,0,8.61,8.61,0,0,0-2.94,2,9,9,0,0,0-1.86,3.12A11.68,11.68,0,0,0,315.78,31.14Z" fill="#282e36"/>
        <path d="M362.16,24.06a8.28,8.28,0,0,0-2.37-2,6.83,6.83,0,0,0-3.45-.81,6.57,6.57,0,0,0-3.33.81,2.58,2.58,0,0,0-1.41,2.37,2.7,2.7,0,0,0,.81,2,6.27,6.27,0,0,0,1.92,1.26,11.26,11.26,0,0,0,2.37.72l2.16.42a25,25,0,0,1,3.27,1,9,9,0,0,1,2.64,1.56,6.77,6.77,0,0,1,1.74,2.34,8.06,8.06,0,0,1,.63,3.36,7.88,7.88,0,0,1-1,4.11A8.6,8.6,0,0,1,363.48,44a11.11,11.11,0,0,1-3.69,1.56,18.4,18.4,0,0,1-4.17.48A16.48,16.48,0,0,1,349.41,45a11.17,11.17,0,0,1-4.77-4l4.08-3.36A16.8,16.8,0,0,0,351.66,40a7.29,7.29,0,0,0,4,1,10.54,10.54,0,0,0,2.07-.21,6.39,6.39,0,0,0,1.86-.66A4.07,4.07,0,0,0,360.87,39a2.6,2.6,0,0,0,.51-1.59,2.74,2.74,0,0,0-.75-2,5.54,5.54,0,0,0-1.8-1.23,13.1,13.1,0,0,0-2.22-.72q-1.17-.27-2.07-.45c-1.17-.28-2.26-.6-3.3-1a10,10,0,0,1-2.76-1.44,6.65,6.65,0,0,1-1.92-2.28,7.34,7.34,0,0,1-.72-3.42,7.75,7.75,0,0,1,.93-3.87,8.27,8.27,0,0,1,2.46-2.73,11.13,11.13,0,0,1,3.48-1.62,14.66,14.66,0,0,1,3.93-.54,14.44,14.44,0,0,1,5.52,1.08,8.74,8.74,0,0,1,4.2,3.6Z" fill="#282e36"/>
        <path d="M388.92,21.6h-7.75V34.5q0,1.2.06,2.37a6.22,6.22,0,0,0,.45,2.1,3.41,3.41,0,0,0,1.2,1.5,4.11,4.11,0,0,0,2.37.57,11.39,11.39,0,0,0,2-.18,5.72,5.72,0,0,0,1.86-.66v4.92a7,7,0,0,1-2.49.75,18.69,18.69,0,0,1-2.37.21,10.86,10.86,0,0,1-4.83-.87A5.93,5.93,0,0,1,376.88,43a7.28,7.28,0,0,1-1-3.09q-.15-1.71-.15-3.45V21.6h-6.23V16.92h6.23v-8h5.4v8h7.75Z" fill="#282e36"/>
        <path d="M400,33.12a7.13,7.13,0,0,0,.8,3.39,8.43,8.43,0,0,0,2.13,2.61A9.8,9.8,0,0,0,406,40.8a10.86,10.86,0,0,0,3.59.6,8,8,0,0,0,4.38-1.17,14.1,14.1,0,0,0,3.42-3.09l4.08,3.12q-4.5,5.82-12.6,5.82a15.58,15.58,0,0,1-6.08-1.14,13.21,13.21,0,0,1-4.63-3.15,14.13,14.13,0,0,1-2.91-4.74,16.75,16.75,0,0,1-1-5.91,15.54,15.54,0,0,1,1.1-5.91,14.51,14.51,0,0,1,3.07-4.74A13.82,13.82,0,0,1,403,17.34a15,15,0,0,1,5.88-1.14,14.09,14.09,0,0,1,6.4,1.32A12.63,12.63,0,0,1,419.58,21a13.76,13.76,0,0,1,2.42,4.8,20,20,0,0,1,.75,5.43v1.92Zm17-4.32a11.39,11.39,0,0,0-.58-3.3,7.26,7.26,0,0,0-1.53-2.61,7,7,0,0,0-2.55-1.74,9.28,9.28,0,0,0-3.56-.63,8.72,8.72,0,0,0-3.64.75,8.84,8.84,0,0,0-2.79,1.95,9,9,0,0,0-1.77,2.67A7.51,7.51,0,0,0,400,28.8Z" fill="#282e36"/>
        <path d="M429.23,16.92h5.4V21.3h.12a7.7,7.7,0,0,1,1.44-2.07,9.64,9.64,0,0,1,2-1.59,10.62,10.62,0,0,1,2.43-1.05,9.28,9.28,0,0,1,2.64-.39,7.56,7.56,0,0,1,2.4.36l-.24,5.82q-.66-.18-1.32-.3a7.37,7.37,0,0,0-1.32-.12,7.94,7.94,0,0,0-6.06,2.22q-2.1,2.22-2.1,6.9V45.36h-5.4Z" fill="#282e36"/>
      </g>
      <g>
        <g>
          <polygon points="182.7 40.4 181.79 33.09 185.39 30.82 182.7 40.4" fill="#458bcc"/>
          <polygon points="172.38 40.77 176.87 37.38 179.75 38.91 172.38 40.77" fill="#458bcc"/>
          <polygon points="167.12 41.12 172.71 37.14 172 33.23 167.12 41.12" fill="#458bcc"/>
          <polygon points="186.13 41.84 182.03 44.74 181.62 41.32 186.13 41.84" fill="#458bcc"/>
          <polygon points="177.85 30.29 183.11 28.59 173.66 27.64 177.85 30.29" fill="#458bcc"/>
          <polygon points="176.5 42.13 175.2 45.51 178.7 44.57 176.5 42.13" fill="#458bcc"/>
          <polygon points="167.45 34.71 166.12 37.88 161.88 37.92 167.45 34.71" fill="#458bcc"/>
          <polygon points="167.45 31.66 169.29 28.76 172.38 30.25 167.45 31.66" fill="#458bcc"/>
          <polygon points="173.08 31.99 176.37 34.9 180.51 32.3 173.08 31.99" fill="#458bcc"/>
        </g>
        <g>
          <polygon points="212.8 12.63 182.57 16.29 194.81 24.02 196.59 38.4 200.77 31.74 196.59 38.4 196.59 38.4 212.8 12.63" fill="none"/>
          <polygon points="194.81 24.02 196.59 38.4 212.8 12.63 184.44 16.06 192.57 15.08 184.44 16.06 182.57 16.29 194.81 24.02" fill="none"/>
          <polygon points="194.81 24.02 194.81 24.02 189.64 27.28 189.64 27.28 191.94 45.78 196.59 38.4 194.81 24.02" fill="url(#Dégradé_sans_nom_11)"/>
          <polygon points="182.57 16.29 173.91 17.34 189.64 27.28 194.81 24.02 182.57 16.29" fill="url(#Dégradé_sans_nom_10)"/>
          <polygon points="166.37 12.57 173.91 17.34 184.44 16.06 212.8 12.63 196.59 38.4 191.94 45.78 193.03 54.63 223.88 5.6 166.37 12.57" fill="url(#Dégradé_sans_nom_5)"/>
        </g>
      </g>
    </g>
  </g>
</svg>
